<svg id="Group_1360" data-name="Group 1360" xmlns="http://www.w3.org/2000/svg" width="48.355" height="32.488" viewBox="0 0 48.355 32.488">
  <path id="Path_690" data-name="Path 690" d="M3.022,0h42.31a3.022,3.022,0,0,1,3.022,3.022V29.466a3.022,3.022,0,0,1-3.022,3.022H3.022A3.022,3.022,0,0,1,0,29.466V3.022A3.022,3.022,0,0,1,3.022,0Z" fill="#fff" opacity="0"/>
  <g id="Group_1307" data-name="Group 1307" transform="translate(10.578 2.267)">
    <path id="Path_561" data-name="Path 561" d="M306.337,360.1a1.781,1.781,0,0,1-1.823,1.846c-1.256.009-2.513,0-3.769,0h0c-1.222,0-2.445,0-3.667,0a1.824,1.824,0,0,1-1.965-1.974q0-3.642,0-7.284a1.83,1.83,0,0,1,1.909-1.963q3.718-.026,7.436,0a1.813,1.813,0,0,1,1.879,1.936q0,3.718,0,7.436" transform="translate(-280.063 -335.253)" fill="#a7aab9"/>
    <path id="Path_562" data-name="Path 562" d="M11.218,360.082a1.8,1.8,0,0,1-1.462,1.9,1.568,1.568,0,0,1-.328.032c-2.554,0-5.109.006-7.664,0a1.759,1.759,0,0,1-1.714-1.4,2.734,2.734,0,0,1-.037-.557c0-1.214,0-2.428,0-3.641s.031-2.446-.01-3.667a1.867,1.867,0,0,1,1.966-1.958c2.427.009,4.855,0,7.282,0a1.872,1.872,0,0,1,1.914,1.374,2.2,2.2,0,0,1,.048.556q.006,3.679.006,7.359" transform="translate(0 -335.327)" fill="#a7aab9"/>
    <path id="Path_563" data-name="Path 563" d="M11.241,65.017a1.957,1.957,0,0,1-2.058,2.045c-2.427-.031-4.856-.007-7.284-.011a1.84,1.84,0,0,1-1.838-1.43,2.513,2.513,0,0,1-.039-.583q0-1.808,0-3.616c0-1.223.031-2.446-.009-3.667a1.876,1.876,0,0,1,1.952-1.939c2.478.035,4.958.009,7.436.014A1.825,1.825,0,0,1,11.177,57.2a2.4,2.4,0,0,1,.045.582c0,2.411-.021,4.823.018,7.233" transform="translate(-0.011 -53.455)" fill="#a7aab9"/>
    <path id="Path_564" data-name="Path 564" d="M289.835,7.989a2.542,2.542,0,0,1-.309.358q-2.539,2.544-5.081,5.083a1.771,1.771,0,0,1-2.733,0q-2.526-2.522-5.048-5.049a1.821,1.821,0,0,1,0-2.732q2.529-2.536,5.064-5.066A1.865,1.865,0,0,1,284.446.6q1.372,1.377,2.75,2.751c.8.8,1.606,1.593,2.395,2.4a1.745,1.745,0,0,1,.244,2.237" transform="translate(-262.938 0)" fill="#a7aab9"/>
  </g>
</svg>
