<svg xmlns="http://www.w3.org/2000/svg" width="47" height="33" viewBox="0 0 47 33">
  <g id="Group_1362" data-name="Group 1362" transform="translate(0 0)">
    <rect id="Rectangle_966" data-name="Rectangle 966" width="47" height="33" rx="4" transform="translate(0 0)" fill="#fff" opacity="0"/>
    <g id="Group_1310" data-name="Group 1310" transform="translate(9.041 2.053)">
      <rect id="Rectangle_670" data-name="Rectangle 670" width="19.384" height="19.384" rx="2" transform="translate(0 8.552)" fill="#a7aab9"/>
      <g id="Path_521" data-name="Path 521" transform="translate(5.118 5.067)" fill="#a7aab9">
        <path d="M 17.10832214355469 18.50924110412598 L 1.90092146396637 18.50924110412598 C 1.128451466560364 18.50924110412598 0.5000014901161194 17.88079071044922 0.5000014901161194 17.10832023620605 L 0.5000014901161194 1.900920510292053 C 0.5000014901161194 1.128450512886047 1.128451466560364 0.500000536441803 1.90092146396637 0.500000536441803 L 17.10832214355469 0.500000536441803 C 17.88079071044922 0.500000536441803 18.50924110412598 1.128450512886047 18.50924110412598 1.900920510292053 L 18.50924110412598 17.10832023620605 C 18.50924110412598 17.88079071044922 17.88079071044922 18.50924110412598 17.10832214355469 18.50924110412598 Z" stroke="none"/>
        <path d="M 1.900920867919922 1 C 1.404151916503906 1 1.000001907348633 1.404150009155273 1.000001907348633 1.900920867919922 L 1.000001907348633 17.10832023620605 C 1.000001907348633 17.6050910949707 1.404151916503906 18.00924110412598 1.900920867919922 18.00924110412598 L 17.10831069946289 18.00924110412598 C 17.60508155822754 18.00924110412598 18.00924110412598 17.6050910949707 18.00924110412598 17.10832023620605 L 18.00924110412598 1.900920867919922 C 18.00924110412598 1.404150009155273 17.60508155822754 1 17.10831069946289 1 L 1.900920867919922 1 M 1.900920867919922 0 L 17.10831069946289 0 C 18.15817070007324 0 19.00924110412598 0.8510704040527344 19.00924110412598 1.900920867919922 L 19.00924110412598 17.10832023620605 C 19.00924110412598 18.15817070007324 18.15817070007324 19.00924110412598 17.10831069946289 19.00924110412598 L 1.900920867919922 19.00924110412598 C 0.8510723114013672 19.00924110412598 1.9073486328125e-06 18.15817070007324 1.9073486328125e-06 17.10832023620605 L 1.9073486328125e-06 1.900920867919922 C 1.9073486328125e-06 0.8510704040527344 0.8510723114013672 0 1.900920867919922 0 Z" stroke="none" fill="#f4f7fc"/>
      </g>
      <g id="Rectangle_672" data-name="Rectangle 672" transform="translate(10.832 0)" fill="#a7aab9" stroke="#f4f7fc" stroke-width="1">
        <rect width="19.384" height="19.384" rx="2" stroke="none"/>
        <rect x="0.5" y="0.5" width="18.384" height="18.384" rx="1.5" fill="none"/>
      </g>
    </g>
  </g>
</svg>
