<svg id="Layer_14" xmlns="http://www.w3.org/2000/svg" width="157.734" height="157.754" viewBox="0 0 157.734 157.754">
  <path id="Path_617" data-name="Path 617" d="M88.6,9.738q0-2.566-.163-5.092a4.93,4.93,0,1,0-9.84.631h0q.14,2.211.143,4.461A68.779,68.779,0,0,1,58.5,58.518,68.779,68.779,0,0,1,9.721,78.755q-2.248,0-4.461-.143a4.93,4.93,0,1,0-.631,9.84c1.681.108,3.382.163,5.092.163A78.96,78.96,0,0,0,88.6,9.738Z" transform="translate(0.055 0.122)"/>
  <path id="Path_618" data-name="Path 618" d="M97.953,14.163Q95.424,14,92.86,14A78.956,78.956,0,0,0,13.983,92.877q0,2.566.163,5.093a4.93,4.93,0,0,0,9.84-.631h0q-.141-2.211-.143-4.462A69.093,69.093,0,0,1,92.86,23.86q2.248,0,4.461.143a4.93,4.93,0,1,0,.631-9.84Z" transform="translate(54.951 55.017)"/>
  <path id="Path_619" data-name="Path 619" d="M78.926,157.754A78.877,78.877,0,1,0,0,78.877,78.453,78.453,0,0,0,78.926,157.754ZM30.028,30.1a69,69,0,0,1,97.61,97.561,67.431,67.431,0,0,1-48.711,20.237,67.761,67.761,0,0,1-48.85-20.237A68.9,68.9,0,0,1,30.028,30.1Z"/>
</svg>
